<?xml version="1.0" encoding="UTF-8"?>
<svg xmlns="http://www.w3.org/2000/svg" width="187" height="33" viewBox="0 0 187 33" fill="none">
  <path fill-rule="evenodd" clip-rule="evenodd" d="M59.8394 29.4695C59.6395 29.0035 59.4676 28.5123 59.3239 27.996C59.1802 27.4797 59.0771 26.9507 59.0146 26.4092C58.4523 27.4041 57.7119 28.229 56.7934 28.8839C55.8749 29.5387 54.7783 29.8662 53.5037 29.8662C51.3792 29.8662 49.7422 29.3152 48.5925 28.2132C47.4428 27.1113 46.868 25.6095 46.868 23.7078C46.868 21.7054 47.6334 20.1532 49.1642 19.0513C50.6951 17.9493 52.9288 17.3983 55.8655 17.3983H58.9209V15.7737C58.9209 14.7914 58.6647 14.0295 58.1524 13.488C57.64 12.9464 56.884 12.6757 55.8842 12.6757C54.997 12.6757 54.3128 12.8929 53.8317 13.3274C53.3506 13.7619 53.11 14.3632 53.11 15.1314L47.824 15.1126L47.8052 14.9992C47.7178 13.2738 48.4613 11.7846 50.0359 10.5316C51.6104 9.27847 53.6786 8.65194 56.2404 8.65194C58.6647 8.65194 60.6329 9.27217 62.145 10.5127C63.6571 11.7532 64.4131 13.5194 64.4131 15.8115V24.2556C64.4131 25.2128 64.485 26.1132 64.6287 26.957C64.7724 27.8008 65.0005 28.6383 65.3129 29.4695H59.8394ZM54.8345 25.7858C55.7968 25.7858 56.6528 25.5465 57.4026 25.0679C58.1524 24.5894 58.6585 24.0353 58.9209 23.4056V20.5153H55.8655C54.7033 20.5153 53.8223 20.8081 53.2225 21.3937C52.6227 21.9793 52.3227 22.6877 52.3227 23.5189C52.3227 24.199 52.5477 24.7468 52.9975 25.1624C53.4474 25.578 54.0597 25.7858 54.8345 25.7858ZM80.946 26.5225C80.3212 27.593 79.5277 28.4179 78.5654 28.9972C77.6032 29.5765 76.4973 29.8662 75.2476 29.8662C73.1107 29.8662 71.4393 29.1767 70.2334 27.7976C69.0275 26.4186 68.4245 24.2745 68.4245 21.3654V9.02975H73.8792V21.4032C73.8792 22.8892 74.1292 23.9565 74.629 24.6051C75.1289 25.2537 75.8662 25.578 76.8409 25.578C77.7157 25.578 78.4655 25.4363 79.0903 25.153C79.7151 24.8696 80.2275 24.4509 80.6274 23.8967V9.02975H86.1008V29.4695H81.4334L80.946 26.5225ZM96.7291 4.02372V9.02975H100.141V12.9023H96.7291V23.3111C96.7291 24.1045 96.8916 24.6712 97.2165 25.0113C97.5414 25.3513 97.9788 25.5213 98.5286 25.5213C98.816 25.5213 99.0628 25.5056 99.269 25.4741C99.4752 25.4426 99.7158 25.3891 99.9907 25.3135L100.459 29.2995C99.9095 29.4884 99.3721 29.63 98.8473 29.7245C98.3224 29.819 97.7538 29.8662 97.1415 29.8662C95.2545 29.8662 93.8018 29.3435 92.7833 28.2983C91.7649 27.253 91.2556 25.5969 91.2556 23.33V12.9023H88.294V9.02975H91.2556V4.02372H96.7291ZM102.784 19.0607C102.784 16.013 103.627 13.5163 105.314 11.5705C107.001 9.6248 109.338 8.65194 112.325 8.65194C115.324 8.65194 117.673 9.62165 119.373 11.5611C121.072 13.5006 121.922 16.0004 121.922 19.0607V19.4574C121.922 22.5303 121.075 25.0333 119.382 26.9665C117.689 28.8996 115.349 29.8662 112.362 29.8662C109.363 29.8662 107.017 28.8996 105.324 26.9665C103.63 25.0333 102.784 22.5303 102.784 19.4574V19.0607ZM108.238 19.4574C108.238 21.3213 108.563 22.8168 109.213 23.9439C109.863 25.0711 110.913 25.6347 112.362 25.6347C113.774 25.6347 114.808 25.0679 115.465 23.9345C116.121 22.8011 116.449 21.3087 116.449 19.4574V19.0607C116.449 17.2472 116.117 15.7674 115.455 14.6214C114.793 13.4754 113.749 12.9023 112.325 12.9023C110.913 12.9023 109.879 13.4785 109.223 14.6308C108.566 15.7832 108.238 17.2598 108.238 19.0607V19.4574Z" fill="#1D1D1D"></path>
  <path fill-rule="evenodd" clip-rule="evenodd" d="M130.606 11.6178C131.243 10.6858 132.024 9.95854 132.949 9.4359C133.874 8.91325 134.898 8.65194 136.023 8.65194C138.135 8.65194 139.794 9.36033 141 10.7771C142.206 12.1939 142.809 14.3821 142.809 17.3417V29.4695H137.335V17.3039C137.335 15.717 137.057 14.5931 136.501 13.9319C135.945 13.2707 135.117 12.9401 134.017 12.9401C133.268 12.9401 132.605 13.0755 132.03 13.3463C131.456 13.617 130.981 13.998 130.606 14.4892V29.4695H125.132V0H130.606V11.6178ZM159.323 26.5225C158.698 27.593 157.904 28.4179 156.942 28.9972C155.98 29.5765 154.874 29.8662 153.624 29.8662C151.487 29.8662 149.816 29.1767 148.61 27.7976C147.404 26.4186 146.801 24.2745 146.801 21.3654V9.02975H152.256V21.4032C152.256 22.8892 152.506 23.9565 153.006 24.6051C153.506 25.2537 154.243 25.578 155.218 25.578C156.092 25.578 156.842 25.4363 157.467 25.153C158.092 24.8696 158.604 24.4509 159.004 23.8967V9.02975H164.478V29.4695H159.81L159.323 26.5225ZM186.896 19.8163C186.896 22.864 186.222 25.3009 184.872 27.127C183.522 28.9531 181.573 29.8662 179.024 29.8662C177.849 29.8662 176.821 29.6175 175.94 29.12C175.059 28.6225 174.312 27.8953 173.7 26.9381L173.288 29.4695H168.601V0H174.056V11.2022C174.643 10.3836 175.346 9.75389 176.165 9.31311C176.983 8.87232 177.924 8.65194 178.986 8.65194C181.56 8.65194 183.522 9.63109 184.872 11.5894C186.222 13.5478 186.896 16.1578 186.896 19.4196V19.8163ZM181.442 19.4196C181.442 17.4298 181.151 15.8524 180.57 14.6875C179.989 13.5226 178.999 12.9401 177.599 12.9401C176.749 12.9401 176.031 13.1196 175.443 13.4785C174.856 13.8374 174.394 14.3506 174.056 15.0181V23.67C174.394 24.2871 174.859 24.7594 175.453 25.0868C176.046 25.4143 176.774 25.578 177.636 25.578C179.049 25.578 180.036 25.0774 180.598 24.0762C181.16 23.075 181.442 21.655 181.442 19.8163V19.4196Z" fill="#0275D8"></path>
  <path fill-rule="evenodd" clip-rule="evenodd" d="M11.1693 26.8718L13.8252 23.949C12.6328 22.8417 11.8839 21.254 11.8839 19.4925C11.8839 16.1543 14.5715 13.4387 17.875 13.4387C21.1785 13.4387 23.8661 16.1543 23.8661 19.4925C23.8661 21.254 23.1172 22.8417 21.9248 23.949L24.5808 26.8718C26.5551 25.0384 27.7946 22.409 27.7946 19.4925C27.7946 13.9654 23.3447 9.46894 17.875 9.46894C12.4053 9.46894 7.95534 13.9654 7.95534 19.4925C7.95534 22.409 9.1949 25.0384 11.1693 26.8718Z" fill="#0275D8"></path>
  <path fill-rule="evenodd" clip-rule="evenodd" d="M17.875 16.8129C16.4104 16.8129 15.2232 18.0125 15.2232 19.4924C15.2232 20.9723 16.4104 22.172 17.875 22.172C19.3396 22.172 20.5268 20.9723 20.5268 19.4924C20.5268 18.0125 19.3396 16.8129 17.875 16.8129Z" fill="#1D1D1D"></path>
  <path fill-rule="evenodd" clip-rule="evenodd" d="M5.7914 32.7899L8.44712 29.8674C5.67129 27.2897 3.92857 23.5931 3.92857 19.4924C3.92857 11.7218 10.1849 5.39993 17.875 5.39993C25.5651 5.39993 31.8214 11.7218 31.8214 19.4924C31.8214 23.5931 30.0787 27.2897 27.3029 29.8674L29.9586 32.7899C33.5164 29.4862 35.75 24.7482 35.75 19.4924C35.75 9.5329 27.7314 1.43021 17.875 1.43021C8.01871 1.43021 0 9.5329 0 19.4924C0 24.7482 2.23359 29.4862 5.7914 32.7899Z" fill="#1D1D1D"></path>
</svg>
