<svg width="220" height="49" viewBox="0 0 220 49" fill="none" xmlns="http://www.w3.org/2000/svg">
<path fill-rule="evenodd" clip-rule="evenodd" d="M38.5562 12.506C40.033 12.506 41.2299 13.7239 41.2299 15.2265C41.2299 16.7282 40.033 17.947 38.5562 17.947H23.289V34.0507C23.289 35.5534 22.0912 36.7712 20.6154 36.7712C19.1387 36.7712 17.9418 35.5534 17.9418 34.0507V17.947H2.67362C1.19786 17.947 0 16.7282 0 15.2265C0 13.7239 1.19786 12.506 2.67362 12.506H38.5562ZM215.482 12.5309C217.078 12.3768 218.419 13.6477 218.419 15.2382V31.5837C218.419 33.1517 217.76 34.681 216.531 35.6283C215.032 36.7849 213.083 36.9564 211.436 36.1091C211.394 36.0877 211.353 36.0652 211.312 36.0407L182.636 19.298C181.921 18.8825 181.032 19.4062 181.032 20.2433V34.0511C181.032 35.6416 179.691 36.9135 178.096 36.7584C176.706 36.6236 175.685 35.3547 175.685 33.9337V17.5759C175.685 16.0058 176.346 14.4746 177.576 13.5272C179.075 12.3727 181.02 12.2032 182.667 13.0485C182.709 13.0709 182.751 13.0934 182.792 13.1179L211.466 29.8585C212.182 30.2761 213.072 29.7514 213.072 28.9132V15.3556C213.072 13.9346 214.093 12.6657 215.482 12.5309ZM108.597 12.9295C109.705 11.9363 111.394 12.0445 112.371 13.1715C113.348 14.2985 113.241 16.0176 112.133 17.0108C108.05 20.6736 103.913 23.0154 100.109 24.5017C103.913 25.988 108.05 28.3268 112.133 31.9895C113.241 32.9838 113.348 34.7019 112.371 35.8289C111.843 36.4383 111.105 36.7507 110.364 36.7507C109.736 36.7507 109.105 36.5261 108.597 36.0708C98.2814 26.817 87.62 27.3376 85.3136 27.5785V33.9526C85.3136 35.4563 84.1168 36.6731 82.64 36.6731C81.1642 36.6731 79.9674 35.4563 79.9674 33.9526V15.2264C79.9674 13.7238 81.1642 12.5059 82.64 12.5059C84.1168 12.5059 85.3136 13.7238 85.3136 15.2264V21.4198C86.3279 21.5219 88.9483 21.6771 92.4065 21.0523C98.3336 19.9835 103.78 17.2507 108.597 12.9295ZM72.8719 12.5056C74.3487 12.5056 75.5455 13.7235 75.5455 15.2261C75.5455 16.671 74.439 17.8525 73.041 17.9413L72.8719 17.9466H55.6314C52.0257 17.9466 49.1023 20.9213 49.1023 24.5902C49.1023 28.1793 51.9 31.1032 55.3972 31.2286L55.6314 31.2328H72.8719C74.3487 31.2328 75.5455 32.4517 75.5455 33.9533C75.5455 35.3982 74.439 36.5797 73.041 36.6685L72.8719 36.6738H55.6314C49.0722 36.6738 43.7561 31.2634 43.7561 24.5902C43.7561 18.0187 48.9099 12.6724 55.3295 12.5094L55.6314 12.5056H72.8719ZM120.604 12.506C122.081 12.506 123.277 13.7239 123.277 15.2265V33.9527C123.277 35.4554 122.081 36.6732 120.604 36.6732C119.128 36.6732 117.931 35.4554 117.931 33.9527V15.2265C117.931 13.7239 119.128 12.506 120.604 12.506ZM160.028 12.506C166.21 12.506 171.239 17.6234 171.239 23.9128V25.2664C171.239 31.5568 166.21 36.6732 160.028 36.6732H139.449C133.267 36.6732 128.239 31.5568 128.239 25.2664V23.9128C128.239 17.6234 133.267 12.506 139.449 12.506H160.028ZM160.028 17.947H139.449C136.215 17.947 133.586 20.6237 133.586 23.9128V25.2664C133.586 28.5566 136.215 31.2332 139.449 31.2332H160.028C163.261 31.2332 165.892 28.5566 165.892 25.2664V23.9128C165.892 20.6237 163.261 17.947 160.028 17.947ZM70.6176 21.8695C72.0943 21.8695 73.2912 23.0874 73.2912 24.59C73.2912 26.0339 72.1846 27.2164 70.7867 27.3052L70.6176 27.3105H55.6463C54.1696 27.3105 52.9737 26.0917 52.9737 24.59C52.9737 23.1451 54.0793 21.9636 55.4772 21.8748L55.6463 21.8695H70.6176Z" fill="#00C3B4"/>
</svg>
