<?xml version="1.0" encoding="UTF-8"?>
<svg xmlns="http://www.w3.org/2000/svg" width="20" height="20" viewBox="0 0 20 20" fill="none">
  <g clip-path="url(#clip0_17659_6663)">
    <path d="M10.0001 19.506C15.2447 19.506 19.4963 15.25 19.4963 10C19.4963 4.75008 15.2447 0.494141 10.0001 0.494141C4.75541 0.494141 0.503784 4.75008 0.503784 10C0.503784 15.25 4.75541 19.506 10.0001 19.506Z" fill="white"></path>
    <path d="M10 0C4.47667 0 0 4.47667 0 10C0 15.5233 4.47667 20 10 20C15.5233 20 20 15.5233 20 10C20 4.47667 15.5233 0 10 0ZM10.3949 16.2188H9.62782L4.44347 4.98515L7.12913 6.06325L10.0035 12.3607L12.8656 6.065L15.4971 5.07252L10.3932 16.2205L10.3949 16.2188Z" fill="#FF8210"></path>
  </g>
  <defs>
    <clipPath id="clip0_17659_6663">
      <rect width="20" height="20" fill="white"></rect>
    </clipPath>
  </defs>
</svg>
