<svg xmlns="http://www.w3.org/2000/svg" viewBox="0 0 1876 268.61"><title>VinSolutions_3c_rgb_notag</title><path d="M288.2,2.68A25.49,25.49,0,0,0,262.89,28c0,13.45,11.08,25.58,25.32,25.58A25.55,25.55,0,0,0,313.52,28,25.16,25.16,0,0,0,288.2,2.68h0Z" fill="#5bb8dc"/><path d="M314.18,73.91H261.57c-7.66,0-12.42,5.17-12.42,13.5,0,14.7,21.7,127.55,33.06,167.87,2.09,7.44,4.65,8.55,6,8.55h0.13l0.13,0c1.24-.16,3.6-1.44,5.39-8.2C304.33,216,324.35,102.79,324.35,87.41,324.35,79,320.55,73.91,314.18,73.91Z" fill="#5bb8dc"/><path d="M835.63,71.64c-54.63,0-97.41,42.79-97.41,97.41,0,55.83,42.79,99.56,97.41,99.56S933,224.88,933,169.05C933,114.43,890.25,71.64,835.63,71.64Zm0,173c-40.58,0-72.36-33.2-72.36-75.59,0-41.18,31.79-73.44,72.36-73.44S908,127.87,908,169.05C908,211.44,876.21,244.64,835.63,244.64Z" fill="#5a6875"/><path d="M1454.13,71.64c-54.63,0-97.42,42.79-97.42,97.41,0,55.83,42.79,99.56,97.42,99.56s97.41-43.73,97.41-99.56C1551.54,114.43,1508.75,71.64,1454.13,71.64Zm72.36,97.41c0,42.38-31.79,75.59-72.36,75.59s-72.37-33.2-72.37-75.59c0-41.18,31.79-73.44,72.37-73.44S1526.49,127.87,1526.49,169.05Z" fill="#5a6875"/><path d="M650.51,117.72c-29.37-13.19-54.74-24.58-54.74-52.19,0-19.85,16.59-41.21,53-41.21,24.08,0,44.42,11,44.42,24v7c0,0.1,0,.2,0,0.3s0,0.2,0,.3v0.7h0.07a12.41,12.41,0,0,0,24.77,0l0.13-3.1V44.76C718.19,11.92,676.37,0,648.44,0c-37.84,0-78.07,23.09-78.07,65.89,0,43.07,36.37,59.63,68.46,74.24,29.81,13.57,58,26.4,58,57.58,0,26.55-22,46.58-51.24,46.58-31.07,0-52.92-18.53-60.49-26l-0.06.06a12.38,12.38,0,0,0-9.26-4.2,12.52,12.52,0,0,0-8.53,21.65l0,0a107.73,107.73,0,0,0,77.66,32.82c44.82,0,77.36-30.12,77.36-71.62C722.21,149.91,684.12,132.81,650.51,117.72Z" fill="#5a6875"/><path d="M222,32.18c1.25-3.39,3.1-4.51,7-4.85a12.43,12.43,0,0,0-.64-24.84c-0.19,0-.38,0-0.57.06v0c-18.28,1-24.84,7-31.4,24.84l0,0.08L126.07,212.87c-1.94,5.35-4.07,11.87-5.87,17.59-1.81-5.73-3.94-12.27-5.9-17.64L44.37,27.47C37.81,9.63,31.25,3.6,13,2.63v0c-0.19,0-.37-0.06-0.57-0.06a12.43,12.43,0,0,0-.64,24.84c3.91,0.33,5.76,1.45,7,4.85l88.09,225.08a4.72,4.72,0,0,0,1.11,1.7A18.42,18.42,0,0,0,120.23,264a19.71,19.71,0,0,0,12.42-4.75,4.79,4.79,0,0,0,1.25-1.83L222,32.25Z" fill="#5a6875"/><path d="M1337.12,246.73V211.81h-0.06V100.37c0-17.34-8-25.45-25.38-25.45H1239V34.74a12.23,12.23,0,1,0-24.46,0c0,0.37.06,5.94,0.12,6.32V74.93h-15c-0.19,0-.37-0.06-0.56-0.06s-0.43.06-.62,0.06h-0.87v0.12a11.45,11.45,0,0,0,0,22.72v0.06h0.74c0.25,0,.5.06,0.74,0.06s0.43-.06.68-0.06h14.92v97c0,64,43,70.89,61.6,70.89l4.77-.06a11.71,11.71,0,0,0,11.52-11.76A11.55,11.55,0,0,0,1281,242.33l-4.09.19c-14.18,0-38-6.38-38-48.73v-96h70.54c2.66,0,3.22.62,3.22,3.22v134l0.06,2.35V252.8c0,0.12-.06.12-0.06,0.25a12.33,12.33,0,0,0,17,11.33,12.43,12.43,0,0,0,7.43-11.33C1337.19,252.61,1337.12,247.1,1337.12,246.73Z" fill="#5a6875"/><path d="M982.47,34.61a7.88,7.88,0,0,0-.06-1.24,12.22,12.22,0,0,0-24.21-.8,11.39,11.39,0,0,0-.19,2c0,0.37.06,5.94,0.12,6.32L958,252.05a12.25,12.25,0,0,0,12.26,12.26,11.91,11.91,0,0,0,4.46-.87h0.06a12.19,12.19,0,0,0,7.68-11.39c0-.37-0.06-5.94-0.12-6.31Z" fill="#5a6875"/><path d="M1816.56,156.71c-23.47-8.92-43.71-16.65-43.71-34.92,0-21.67,22.6-26.19,41.54-26.19,10.53,0,30.09,4.77,30.09,16.16v4.89h0.12a12.14,12.14,0,1,0,24.27,0,1.39,1.39,0,0,1-.06-0.25v-9.66c0-25.57-33.8-35.11-55.1-35.11-40.68,0-65.94,19.63-65.94,51.2,0,33.81,31.51,45.82,59.31,56.47,23.53,9,43.9,16.78,43.9,34.73,0,13-13.75,25.82-18.64,25.82H1732.19c-2.6,0-3.22-.62-3.22-3.22V146.12c0-34.67-7.24-74.48-63.77-74.48A86.5,86.5,0,0,0,1594.68,107V100.3l-0.06-.93V86.19a12.25,12.25,0,0,0-12.26-12.26,10.94,10.94,0,0,0-4.52.93,12,12,0,0,0-7.68,11.33c0,0.37.06,5.94,0.12,6.32V253.23h0.06a12.33,12.33,0,0,0,24.64,0l-0.06-2.72-0.06-78.82c0-9.23.68-16.16,2.48-22.54,8.48-31.51,36.41-53.56,67.86-53.56,33,0,39.44,20.49,39.44,55.91v85.81c0,17.89,8.54,26.93,25.45,26.93h102.32c12.51,0,23.4-6.62,31.14-16.22S1876,225.86,1876,214C1876,179.43,1844.42,167.36,1816.56,156.71Z" fill="#5a6875"/><path d="M1172,245.74V87.3l-0.12-2.54a12.19,12.19,0,0,0-24.33,1.18c0,0.5.06,7,.12,7.49V168c0,37.71-25.69,76.65-68.79,76.65-32.94,0-39.38-20.49-39.38-55.85V86.19a12.25,12.25,0,0,0-12.26-12.26,12,12,0,0,0-6.13,1.67A12.18,12.18,0,0,0,1015,86.19c0,0.37.06,5.94,0.12,6.32V194.1c0,51.51,19.63,74.48,63.71,74.48a84.22,84.22,0,0,0,68.79-35.23v18.7a12.25,12.25,0,0,0,12.26,12.26,12.88,12.88,0,0,0,4.4-.8h0.06a12.33,12.33,0,0,0,7.74-11.45C1172.11,251.68,1172,246.11,1172,245.74Z" fill="#5a6875"/><path d="M523.29,247V146.67c0-34.67-7.24-74.48-63.77-74.48A86.5,86.5,0,0,0,389,107.54v-6.69l-0.06-.93V86.75a12.25,12.25,0,0,0-12.26-12.26,10.94,10.94,0,0,0-4.49.92h0a12,12,0,0,0-7.68,11.33h0c0,0.37.06,5.94,0.12,6.32v34.86h0v84.2h-0.13V253.3a12.25,12.25,0,0,0,12.26,12.26,11.45,11.45,0,0,0,2.83-.39,12.27,12.27,0,0,0,9.74-11.39l-0.06-2.72-0.06-78.82c0-9.23.68-16.16,2.48-22.54,8.48-31.51,36.41-53.56,67.86-53.56,33,0,39.44,20.49,39.44,55.91V253.28a12.25,12.25,0,0,0,12.26,12.26,10.93,10.93,0,0,0,4.52-.93c0.43-.19.87-0.37,1.24-0.56a12.14,12.14,0,0,0,6.44-10.77C523.42,252.91,523.36,247.34,523.29,247Z" fill="#5a6875"/></svg>